<svg viewBox="0 0 117.10992 41.81473" xmlns="http://www.w3.org/2000/svg" data-name="Camada 1"><path fill="#fff" d="M48.322 7.328a8.38 8.38 0 0 0-4.987-1.797q-5.1 0-5.102 3.85 0 1.63 2.706 3.89l3.19 2.71c.99.847 1.664 1.468 2.05 1.85a9.47 9.47 0 0 1 1.202 1.618 8.844 8.844 0 0 1 .952 2.094 7.58 7.58 0 0 1 .317 2.16 7.833 7.833 0 0 1-3.18 6.638 13.373 13.373 0 0 1-8.256 2.39 17.777 17.777 0 0 1-7.865-1.797l1.775-5.434a10.604 10.604 0 0 0 6.576 2.135 6.772 6.772 0 0 0 3.754-.96 3.072 3.072 0 0 0 1.493-2.74c0-1.17-.904-2.455-2.708-3.87l-3.32-2.64a26.477 26.477 0 0 1-2.065-1.777 8.67 8.67 0 0 1-1.134-1.53 8.75 8.75 0 0 1-.887-2.02 7.83 7.83 0 0 1-.296-2.136 8.56 8.56 0 0 1 2.836-6.77A10.826 10.826 0 0 1 42.793.7a27.818 27.818 0 0 1 3.89.345 13.24 13.24 0 0 1 3.32.792zm23.104 11.94l-2.553 13.607h-5.34L66.15 19.06a7.184 7.184 0 0 0 .128-1.353q0-3.117-3.12-3.113a6.8 6.8 0 0 0-5.05 2.368l-2.95 15.913H49.86l5.653-31.372h5.17L58.98 11.977a10.665 10.665 0 0 1 5.837-1.766 6.855 6.855 0 0 1 5.02 1.79 6.666 6.666 0 0 1 1.815 4.99 12.2 12.2 0 0 1-.227 2.287zm6.04-15.062a3.115 3.115 0 0 1 1.002-2.353 3.62 3.62 0 0 1 4.88 0 3.07 3.07 0 0 1 1.01 2.353 3.092 3.092 0 0 1-1.012 2.353 3.59 3.59 0 0 1-4.864 0 3.082 3.082 0 0 1-1.017-2.36zm1.72 28.67h-5.37l3.43-18.397h-2.903l.888-4.26h8.19m18.76-4.165a7.536 7.536 0 0 0-2.94-.757q-3.04 0-4.183 4.986h5.206l-.53 4.252H94.4l-3.385 19.83a8.798 8.798 0 0 1-2.98 5.333 8.522 8.522 0 0 1-5.687 2.11l-1.125-3.51a5.574 5.574 0 0 0 2.707-1.5 4.792 4.792 0 0 0 1.48-2.643l3.535-19.62h-3.197l.7-4.25h3.133q2.18-9.28 9.92-9.28a7.227 7.227 0 0 1 3.74.91zm14.04 8.36h-6.11l-2.25 9.85a9.32 9.32 0 0 0-.27 1.965q0 2.283 2.57 2.28a11.323 11.323 0 0 0 3.738-1.076v4.66a19.473 19.473 0 0 1-6.1.77 5.43 5.43 0 0 1-4.06-1.577 5.66 5.66 0 0 1-1.537-4.105 7.174 7.174 0 0 1 .19-1.64l2.506-11.13h-2.566l.89-4.17h2.57l.87-4.536 5.93-2.16-1.56 6.696h6.08zm-95.27-3.033a4.74 4.74 0 0 1 4.727 4.726v10.6a4.74 4.74 0 0 1-4.722 4.724 4.74 4.74 0 0 1-4.724-4.728v-10.6a4.74 4.74 0 0 1 4.726-4.727zm.08-7.8a3.472 3.472 0 1 0 3.47 3.47 3.478 3.478 0 0 0-3.47-3.47zM12.086 0a3.85 3.85 0 1 0 3.85 3.85A3.856 3.856 0 0 0 12.085 0zm.19 8.514a5.75 5.75 0 0 0-5.733 5.732v13.122a5.75 5.75 0 0 0 5.732 5.732 5.75 5.75 0 0 0 5.732-5.732V14.246a5.75 5.75 0 0 0-5.732-5.732zm-8.22 4.343a4.067 4.067 0 0 1 4.053 4.055v10.472a4.067 4.067 0 0 1-4.06 4.056A4.067 4.067 0 0 1 0 27.38V16.91a4.067 4.067 0 0 1 4.054-4.056zm-.04-6.5a2.878 2.878 0 1 1-2.88 2.878 2.884 2.884 0 0 1 2.88-2.878z" fill-rule="evenodd"/></svg>